<svg xmlns="http://www.w3.org/2000/svg" viewBox="0 0 100 100" width="100" height="100" role="img" aria-label="Planyr"><title>Planyr</title><rect width="100" height="100" rx="22" fill="#15171C"/><polygon points="50,60 70,68 50,76 30,68" fill="#A8482B"/><polygon points="30,68 50,76 50,79 30,71" fill="#963F26"/><polygon points="50,76 70,68 70,71 50,79" fill="#823620"/><polygon points="50,39 70,47 50,55 30,47" fill="#DC6B42"/><polygon points="30,47 50,55 50,58 30,50" fill="#C85F3A"/><polygon points="50,55 70,47 70,50 50,58" fill="#B25431"/><polygon points="50,18 70,26 50,34 30,26" fill="#F8946A"/><polygon points="30,26 50,34 50,37 30,29" fill="#E8825A"/><polygon points="50,34 70,26 70,29 50,37" fill="#D6744E"/></svg>
