<svg xmlns="http://www.w3.org/2000/svg" viewBox="0 0 100 100" width="100" height="100" role="img" aria-label="Planyr"><title>Planyr</title><rect width="100" height="100" rx="22" fill="#15171C"/><polygon points="50,60 70,68 50,76 30,68" fill="#A8482B"/><polygon points="30,68 50,76 50,79 30,71" fill="#963F26"/><polygon points="50,76 70,68 70,71 50,79" fill="#823620"/><line x1="36.7" y1="70.7" x2="56.7" y2="62.7" stroke="#E89A78" stroke-width="0.6"/><line x1="43.3" y1="73.3" x2="63.3" y2="65.3" stroke="#E89A78" stroke-width="0.6"/><line x1="36.7" y1="65.3" x2="56.7" y2="73.3" stroke="#E89A78" stroke-width="0.6"/><line x1="43.3" y1="62.7" x2="63.3" y2="70.7" stroke="#E89A78" stroke-width="0.6"/><polygon points="50,39 70,47 50,55 30,47" fill="#DC6B42" fill-opacity="0.5"/><polygon points="30,47 50,55 50,58 30,50" fill="#C85F3A" fill-opacity="0.5"/><polygon points="50,55 70,47 70,50 50,58" fill="#B25431" fill-opacity="0.5"/><polygon points="50,39 70,47 50,55 30,47" fill="none" stroke="#F0A888" stroke-width="1"/><path d="M30,47 V50 M50,55 V58 M70,47 V50 M30,50 L50,58 L70,50" fill="none" stroke="#F0A888" stroke-width="0.8"/><polygon points="50,18 70,26 50,34 30,26" fill="none" stroke="#FBB89A" stroke-width="1.4"/><path d="M30,26 V29 M50,34 V37 M70,26 V29 M30,29 L50,37 L70,29" fill="none" stroke="#FBB89A" stroke-width="1.4"/></svg>
